# Blender v2.81 (sub 16) OBJ File: ''
# www.blender.org
o Circle_Circle.001
v 0.000000 0.000000 -1.000000
v -0.195090 0.000000 -0.980785
v -0.382683 0.000000 -0.923880
v -0.555570 0.000000 -0.831470
v -0.707107 0.000000 -0.707107
v -0.831470 0.000000 -0.555570
v -0.923880 0.000000 -0.382683
v -0.980785 0.000000 -0.195090
v -1.000000 0.000000 -0.000000
v -0.980785 0.000000 0.195090
v -0.923880 0.000000 0.382683
v -0.831470 0.000000 0.555570
v -0.707107 0.000000 0.707107
v -0.555570 0.000000 0.831470
v -0.382683 0.000000 0.923880
v -0.195090 0.000000 0.980785
v 0.000000 0.000000 1.000000
v 0.195091 0.000000 0.980785
v 0.382684 0.000000 0.923879
v 0.555571 0.000000 0.831469
v 0.707107 0.000000 0.707106
v 0.831470 0.000000 0.555570
v 0.923880 0.000000 0.382683
v 0.980785 0.000000 0.195089
v 1.000000 0.000000 -0.000001
v 0.980785 0.000000 -0.195091
v 0.923879 0.000000 -0.382684
v 0.831469 0.000000 -0.555571
v 0.707106 0.000000 -0.707108
v 0.555569 0.000000 -0.831470
v 0.382682 0.000000 -0.923880
v 0.195089 0.000000 -0.980786
v 0.000000 0.015143 -1.000000
v -0.195090 0.015143 -0.980785
v -0.382683 0.015143 -0.923880
v -0.555570 0.015143 -0.831470
v -0.707107 0.015143 -0.707107
v -0.831470 0.015143 -0.555570
v -0.923880 0.015143 -0.382683
v -0.980785 0.015143 -0.195090
v -1.000000 0.015143 -0.000000
v -0.980785 0.015143 0.195090
v -0.923880 0.015143 0.382683
v -0.831470 0.015143 0.555570
v -0.707107 0.015143 0.707107
v -0.555570 0.015143 0.831470
v -0.382683 0.015143 0.923880
v -0.195090 0.015143 0.980785
v 0.000000 0.015143 1.000000
v 0.195091 0.015143 0.980785
v 0.382684 0.015143 0.923879
v 0.555571 0.015143 0.831469
v 0.707107 0.015143 0.707106
v 0.831470 0.015143 0.555570
v 0.923880 0.015143 0.382683
v 0.980785 0.015143 0.195089
v 1.000000 0.015143 -0.000001
v 0.980785 0.015143 -0.195091
v 0.923879 0.015143 -0.382684
v 0.831469 0.015143 -0.555571
v 0.707106 0.015143 -0.707108
v 0.555569 0.015143 -0.831470
v 0.382682 0.015143 -0.923880
v 0.195089 0.015143 -0.980786
v 0.000000 0.000000 -0.934556
v -0.182323 0.000000 -0.916599
v -0.357639 0.000000 -0.863417
v -0.519212 0.000000 -0.777055
v -0.660831 0.000000 -0.660831
v -0.777055 0.000000 -0.519211
v -0.863417 0.000000 -0.357639
v -0.916599 0.000000 -0.182323
v -0.934556 0.000000 -0.000000
v -0.916599 0.000000 0.182323
v -0.863417 0.000000 0.357639
v -0.777055 0.000000 0.519211
v -0.660831 0.000000 0.660831
v -0.519211 0.000000 0.777055
v -0.357639 0.000000 0.863417
v -0.182323 0.000000 0.916599
v 0.000000 0.000000 0.934556
v 0.182323 0.000000 0.916599
v 0.357640 0.000000 0.863417
v 0.519212 0.000000 0.777055
v 0.660831 0.000000 0.660830
v 0.777055 0.000000 0.519211
v 0.863418 0.000000 0.357638
v 0.916599 0.000000 0.182322
v 0.934556 0.000000 -0.000001
v 0.916599 0.000000 -0.182324
v 0.863417 0.000000 -0.357640
v 0.777054 0.000000 -0.519212
v 0.660830 0.000000 -0.660832
v 0.519210 0.000000 -0.777056
v 0.357638 0.000000 -0.863418
v 0.182321 0.000000 -0.916599
v 0.000000 0.015143 -0.934556
v -0.182323 0.015143 -0.916599
v -0.357639 0.015143 -0.863417
v -0.519212 0.015143 -0.777055
v -0.660831 0.015143 -0.660831
v -0.777055 0.015143 -0.519211
v -0.863417 0.015143 -0.357639
v -0.916599 0.015143 -0.182323
v -0.934556 0.015143 -0.000000
v -0.916599 0.015143 0.182323
v -0.863417 0.015143 0.357639
v -0.777055 0.015143 0.519211
v -0.660831 0.015143 0.660831
v -0.519211 0.015143 0.777055
v -0.357639 0.015143 0.863417
v -0.182323 0.015143 0.916599
v 0.000000 0.015143 0.934556
v 0.182323 0.015143 0.916599
v 0.357640 0.015143 0.863417
v 0.519212 0.015143 0.777055
v 0.660831 0.015143 0.660830
v 0.777055 0.015143 0.519211
v 0.863418 0.015143 0.357638
v 0.916599 0.015143 0.182322
v 0.934556 0.015143 -0.000001
v 0.916599 0.015143 -0.182324
v 0.863417 0.015143 -0.357640
v 0.777054 0.015143 -0.519212
v 0.660830 0.015143 -0.660832
v 0.519210 0.015143 -0.777056
v 0.357638 0.015143 -0.863418
v 0.182321 0.015143 -0.916599
vt 0.000000 0.000000
vt 0.000000 0.000000
vt 0.000000 0.000000
vt 0.000000 0.000000
vt 0.000000 0.000000
vt 0.000000 0.000000
vt 0.000000 0.000000
vt 0.000000 0.000000
vt 0.000000 0.000000
vt 0.000000 0.000000
vt 0.000000 0.000000
vt 0.000000 0.000000
vt 0.000000 0.000000
vt 0.000000 0.000000
vt 0.000000 0.000000
vt 0.000000 0.000000
vt 0.000000 0.000000
vt 0.000000 0.000000
vt 0.000000 0.000000
vt 0.000000 0.000000
vt 0.000000 0.000000
vt 0.000000 0.000000
vt 0.000000 0.000000
vt 0.000000 0.000000
vt 0.000000 0.000000
vt 0.000000 0.000000
vt 0.000000 0.000000
vt 0.000000 0.000000
vt 0.000000 0.000000
vt 0.000000 0.000000
vt 0.000000 0.000000
vt 0.000000 0.000000
vt 0.000000 0.000000
vt 0.000000 0.000000
vt 0.000000 0.000000
vt 0.000000 0.000000
vt 0.000000 0.000000
vt 0.000000 0.000000
vt 0.000000 0.000000
vt 0.000000 0.000000
vt 0.000000 0.000000
vt 0.000000 0.000000
vt 0.000000 0.000000
vt 0.000000 0.000000
vt 0.000000 0.000000
vt 0.000000 0.000000
vt 0.000000 0.000000
vt 0.000000 0.000000
vt 0.000000 0.000000
vt 0.000000 0.000000
vt 0.000000 0.000000
vt 0.000000 0.000000
vt 0.000000 0.000000
vt 0.000000 0.000000
vt 0.000000 0.000000
vt 0.000000 0.000000
vt 0.000000 0.000000
vt 0.000000 0.000000
vt 0.000000 0.000000
vt 0.000000 0.000000
vt 0.000000 0.000000
vt 0.000000 0.000000
vt 0.000000 0.000000
vt 0.000000 0.000000
vt 0.000000 0.000000
vt 0.000000 0.000000
vt 0.000000 0.000000
vt 0.000000 0.000000
vt 0.000000 0.000000
vt 0.000000 0.000000
vt 0.000000 0.000000
vt 0.000000 0.000000
vt 0.000000 0.000000
vt 0.000000 0.000000
vt 0.000000 0.000000
vt 0.000000 0.000000
vt 0.000000 0.000000
vt 0.000000 0.000000
vt 0.000000 0.000000
vt 0.000000 0.000000
vt 0.000000 0.000000
vt 0.000000 0.000000
vt 0.000000 0.000000
vt 0.000000 0.000000
vt 0.000000 0.000000
vt 0.000000 0.000000
vt 0.000000 0.000000
vt 0.000000 0.000000
vt 0.000000 0.000000
vt 0.000000 0.000000
vt 0.000000 0.000000
vt 0.000000 0.000000
vt 0.000000 0.000000
vt 0.000000 0.000000
vt 0.000000 0.000000
vt 0.000000 0.000000
vt 0.000000 0.000000
vt 0.000000 0.000000
vt 0.000000 0.000000
vt 0.000000 0.000000
vt 0.000000 0.000000
vt 0.000000 0.000000
vt 0.000000 0.000000
vt 0.000000 0.000000
vt 0.000000 0.000000
vt 0.000000 0.000000
vt 0.000000 0.000000
vt 0.000000 0.000000
vt 0.000000 0.000000
vt 0.000000 0.000000
vt 0.000000 0.000000
vt 0.000000 0.000000
vt 0.000000 0.000000
vt 0.000000 0.000000
vt 0.000000 0.000000
vt 0.000000 0.000000
vt 0.000000 0.000000
vt 0.000000 0.000000
vt 0.000000 0.000000
vt 0.000000 0.000000
vt 0.000000 0.000000
vt 0.000000 0.000000
vt 0.000000 0.000000
vt 0.000000 0.000000
vt 0.000000 0.000000
vt 0.000000 0.000000
vt 0.000000 0.000000
vt 0.000000 0.000000
vn 0.4714 0.0000 0.8819
vn -0.8819 0.0000 -0.4714
vn 0.6344 0.0000 0.7730
vn -0.9569 0.0000 -0.2903
vn 0.7730 0.0000 0.6344
vn -0.9952 0.0000 -0.0980
vn 0.8819 0.0000 0.4714
vn -0.9952 0.0000 0.0980
vn 0.9569 0.0000 0.2903
vn -0.9569 0.0000 0.2903
vn 0.9952 0.0000 0.0980
vn -0.8819 0.0000 0.4714
vn 0.9952 0.0000 -0.0980
vn -0.7730 0.0000 0.6344
vn 0.9569 0.0000 -0.2903
vn -0.6344 0.0000 0.7730
vn 0.8819 0.0000 -0.4714
vn -0.4714 0.0000 0.8819
vn -0.0980 0.0000 -0.9952
vn 0.7730 0.0000 -0.6344
vn -0.2903 0.0000 0.9569
vn -0.2903 0.0000 -0.9569
vn 0.6344 0.0000 -0.7730
vn -0.0980 0.0000 0.9952
vn -0.4714 0.0000 -0.8819
vn 0.4714 0.0000 -0.8819
vn 0.0980 0.0000 0.9952
vn -0.6344 0.0000 -0.7730
vn 0.2903 0.0000 -0.9569
vn 0.2903 0.0000 0.9569
vn -0.7730 0.0000 -0.6344
vn 0.0980 0.0000 -0.9952
vn 0.0000 1.0000 0.0000
vn 0.0000 -1.0000 0.0000
s off
f 20/1/1 51/2/1 19/3/1
f 7/4/2 38/5/2 6/6/2
f 21/7/3 52/8/3 20/1/3
f 8/9/4 39/10/4 7/4/4
f 22/11/5 53/12/5 21/7/5
f 9/13/6 40/14/6 8/9/6
f 23/15/7 54/16/7 22/11/7
f 10/17/8 41/18/8 9/13/8
f 24/19/9 55/20/9 23/15/9
f 11/21/10 42/22/10 10/17/10
f 25/23/11 56/24/11 24/19/11
f 12/25/12 43/26/12 11/21/12
f 26/27/13 57/28/13 25/23/13
f 13/29/14 44/30/14 12/25/14
f 27/31/15 58/32/15 26/27/15
f 14/33/16 45/34/16 13/29/16
f 28/35/17 59/36/17 27/31/17
f 15/37/18 46/38/18 14/33/18
f 2/39/19 33/40/19 1/41/19
f 29/42/20 60/43/20 28/35/20
f 16/44/21 47/45/21 15/37/21
f 3/46/22 34/47/22 2/39/22
f 30/48/23 61/49/23 29/42/23
f 17/50/24 48/51/24 16/44/24
f 4/52/25 35/53/25 3/46/25
f 31/54/26 62/55/26 30/48/26
f 18/56/27 49/57/27 17/50/27
f 5/58/28 36/59/28 4/52/28
f 32/60/29 63/61/29 31/54/29
f 19/3/30 50/62/30 18/56/30
f 6/6/31 37/63/31 5/58/31
f 1/41/32 64/64/32 32/60/32
f 115/65/25 84/66/25 83/67/25
f 102/68/7 71/69/7 70/70/7
f 116/71/28 85/72/28 84/66/28
f 103/73/9 72/74/9 71/69/9
f 117/75/31 86/76/31 85/72/31
f 104/77/11 73/78/11 72/74/11
f 118/79/2 87/80/2 86/76/2
f 105/81/13 74/82/13 73/78/13
f 119/83/4 88/84/4 87/80/4
f 106/85/15 75/86/15 74/82/15
f 120/87/6 89/88/6 88/84/6
f 107/89/17 76/90/17 75/86/17
f 121/91/8 90/92/8 89/88/8
f 108/93/20 77/94/20 76/90/20
f 122/95/10 91/96/10 90/92/10
f 109/97/23 78/98/23 77/94/23
f 123/99/12 92/100/12 91/96/12
f 110/101/26 79/102/26 78/98/26
f 97/103/27 66/104/27 65/105/27
f 124/106/14 93/107/14 92/100/14
f 111/108/29 80/109/29 79/102/29
f 98/110/30 67/111/30 66/104/30
f 125/112/16 94/113/16 93/107/16
f 112/114/32 81/115/32 80/109/32
f 99/116/1 68/117/1 67/111/1
f 126/118/18 95/119/18 94/113/18
f 113/120/19 82/121/19 81/115/19
f 100/122/3 69/123/3 68/117/3
f 127/124/21 96/125/21 95/119/21
f 114/126/22 83/67/22 82/121/22
f 101/127/5 70/70/5 69/123/5
f 128/128/24 65/105/24 96/125/24
f 63/61/33 126/118/33 62/55/33
f 101/127/33 36/59/33 37/63/33
f 74/82/34 11/21/34 10/17/34
f 64/64/33 127/124/33 63/61/33
f 102/68/33 37/63/33 38/5/33
f 11/21/34 76/90/34 12/25/34
f 97/103/33 64/64/33 33/40/33
f 39/10/33 102/68/33 38/5/33
f 76/90/34 13/29/34 12/25/34
f 104/77/33 39/10/33 40/14/33
f 77/94/34 14/33/34 13/29/34
f 105/81/33 40/14/33 41/18/33
f 78/98/34 15/37/34 14/33/34
f 106/85/33 41/18/33 42/22/33
f 79/102/34 16/44/34 15/37/34
f 43/26/33 106/85/33 42/22/33
f 80/109/34 17/50/34 16/44/34
f 108/93/33 43/26/33 44/30/33
f 17/50/34 82/121/34 18/56/34
f 109/97/33 44/30/33 45/34/33
f 82/121/34 19/3/34 18/56/34
f 110/101/33 45/34/33 46/38/33
f 19/3/34 84/66/34 20/1/34
f 111/108/33 46/38/33 47/45/33
f 84/66/34 21/7/34 20/1/34
f 48/51/33 111/108/33 47/45/33
f 21/7/34 86/76/34 22/11/34
f 113/120/33 48/51/33 49/57/33
f 86/76/34 23/15/34 22/11/34
f 50/62/33 113/120/33 49/57/33
f 87/80/34 24/19/34 23/15/34
f 115/65/33 50/62/33 51/2/33
f 24/19/34 89/88/34 25/23/34
f 116/71/33 51/2/33 52/8/33
f 25/23/34 90/92/34 26/27/34
f 53/12/33 116/71/33 52/8/33
f 90/92/34 27/31/34 26/27/34
f 118/79/33 53/12/33 54/16/33
f 91/96/34 28/35/34 27/31/34
f 65/105/34 2/39/34 1/41/34
f 119/83/33 54/16/33 55/20/33
f 92/100/34 29/42/34 28/35/34
f 2/39/34 67/111/34 3/46/34
f 120/87/33 55/20/33 56/24/33
f 93/107/34 30/48/34 29/42/34
f 3/46/34 68/117/34 4/52/34
f 121/91/33 56/24/33 57/28/33
f 94/113/34 31/54/34 30/48/34
f 68/117/34 5/58/34 4/52/34
f 122/95/33 57/28/33 58/32/33
f 95/119/34 32/60/34 31/54/34
f 69/123/34 6/6/34 5/58/34
f 123/99/33 58/32/33 59/36/33
f 32/60/34 65/105/34 1/41/34
f 70/70/34 7/4/34 6/6/34
f 124/106/33 59/36/33 60/43/33
f 98/110/33 33/40/33 34/47/33
f 71/69/34 8/9/34 7/4/34
f 125/112/33 60/43/33 61/49/33
f 99/116/33 34/47/33 35/53/33
f 72/74/34 9/13/34 8/9/34
f 126/118/33 61/49/33 62/55/33
f 100/122/33 35/53/33 36/59/33
f 73/78/34 10/17/34 9/13/34
f 20/1/1 52/8/1 51/2/1
f 7/4/2 39/10/2 38/5/2
f 21/7/3 53/12/3 52/8/3
f 8/9/4 40/14/4 39/10/4
f 22/11/5 54/16/5 53/12/5
f 9/13/6 41/18/6 40/14/6
f 23/15/7 55/20/7 54/16/7
f 10/17/8 42/22/8 41/18/8
f 24/19/9 56/24/9 55/20/9
f 11/21/10 43/26/10 42/22/10
f 25/23/11 57/28/11 56/24/11
f 12/25/12 44/30/12 43/26/12
f 26/27/13 58/32/13 57/28/13
f 13/29/14 45/34/14 44/30/14
f 27/31/15 59/36/15 58/32/15
f 14/33/16 46/38/16 45/34/16
f 28/35/17 60/43/17 59/36/17
f 15/37/18 47/45/18 46/38/18
f 2/39/19 34/47/19 33/40/19
f 29/42/20 61/49/20 60/43/20
f 16/44/21 48/51/21 47/45/21
f 3/46/22 35/53/22 34/47/22
f 30/48/23 62/55/23 61/49/23
f 17/50/24 49/57/24 48/51/24
f 4/52/25 36/59/25 35/53/25
f 31/54/26 63/61/26 62/55/26
f 18/56/27 50/62/27 49/57/27
f 5/58/28 37/63/28 36/59/28
f 32/60/29 64/64/29 63/61/29
f 19/3/30 51/2/30 50/62/30
f 6/6/31 38/5/31 37/63/31
f 1/41/32 33/40/32 64/64/32
f 115/65/25 116/71/25 84/66/25
f 102/68/7 103/73/7 71/69/7
f 116/71/28 117/75/28 85/72/28
f 103/73/9 104/77/9 72/74/9
f 117/75/31 118/79/31 86/76/31
f 104/77/11 105/81/11 73/78/11
f 118/79/2 119/83/2 87/80/2
f 105/81/13 106/85/13 74/82/13
f 119/83/4 120/87/4 88/84/4
f 106/85/15 107/89/15 75/86/15
f 120/87/6 121/91/6 89/88/6
f 107/89/17 108/93/17 76/90/17
f 121/91/8 122/95/8 90/92/8
f 108/93/20 109/97/20 77/94/20
f 122/95/10 123/99/10 91/96/10
f 109/97/23 110/101/23 78/98/23
f 123/99/12 124/106/12 92/100/12
f 110/101/26 111/108/26 79/102/26
f 97/103/27 98/110/27 66/104/27
f 124/106/14 125/112/14 93/107/14
f 111/108/29 112/114/29 80/109/29
f 98/110/30 99/116/30 67/111/30
f 125/112/16 126/118/16 94/113/16
f 112/114/32 113/120/32 81/115/32
f 99/116/1 100/122/1 68/117/1
f 126/118/18 127/124/18 95/119/18
f 113/120/19 114/126/19 82/121/19
f 100/122/3 101/127/3 69/123/3
f 127/124/21 128/128/21 96/125/21
f 114/126/22 115/65/22 83/67/22
f 101/127/5 102/68/5 70/70/5
f 128/128/24 97/103/24 65/105/24
f 63/61/33 127/124/33 126/118/33
f 101/127/33 100/122/33 36/59/33
f 74/82/34 75/86/34 11/21/34
f 64/64/33 128/128/33 127/124/33
f 102/68/33 101/127/33 37/63/33
f 11/21/34 75/86/34 76/90/34
f 97/103/33 128/128/33 64/64/33
f 39/10/33 103/73/33 102/68/33
f 76/90/34 77/94/34 13/29/34
f 104/77/33 103/73/33 39/10/33
f 77/94/34 78/98/34 14/33/34
f 105/81/33 104/77/33 40/14/33
f 78/98/34 79/102/34 15/37/34
f 106/85/33 105/81/33 41/18/33
f 79/102/34 80/109/34 16/44/34
f 43/26/33 107/89/33 106/85/33
f 80/109/34 81/115/34 17/50/34
f 108/93/33 107/89/33 43/26/33
f 17/50/34 81/115/34 82/121/34
f 109/97/33 108/93/33 44/30/33
f 82/121/34 83/67/34 19/3/34
f 110/101/33 109/97/33 45/34/33
f 19/3/34 83/67/34 84/66/34
f 111/108/33 110/101/33 46/38/33
f 84/66/34 85/72/34 21/7/34
f 48/51/33 112/114/33 111/108/33
f 21/7/34 85/72/34 86/76/34
f 113/120/33 112/114/33 48/51/33
f 86/76/34 87/80/34 23/15/34
f 50/62/33 114/126/33 113/120/33
f 87/80/34 88/84/34 24/19/34
f 115/65/33 114/126/33 50/62/33
f 24/19/34 88/84/34 89/88/34
f 116/71/33 115/65/33 51/2/33
f 25/23/34 89/88/34 90/92/34
f 53/12/33 117/75/33 116/71/33
f 90/92/34 91/96/34 27/31/34
f 118/79/33 117/75/33 53/12/33
f 91/96/34 92/100/34 28/35/34
f 65/105/34 66/104/34 2/39/34
f 119/83/33 118/79/33 54/16/33
f 92/100/34 93/107/34 29/42/34
f 2/39/34 66/104/34 67/111/34
f 120/87/33 119/83/33 55/20/33
f 93/107/34 94/113/34 30/48/34
f 3/46/34 67/111/34 68/117/34
f 121/91/33 120/87/33 56/24/33
f 94/113/34 95/119/34 31/54/34
f 68/117/34 69/123/34 5/58/34
f 122/95/33 121/91/33 57/28/33
f 95/119/34 96/125/34 32/60/34
f 69/123/34 70/70/34 6/6/34
f 123/99/33 122/95/33 58/32/33
f 32/60/34 96/125/34 65/105/34
f 70/70/34 71/69/34 7/4/34
f 124/106/33 123/99/33 59/36/33
f 98/110/33 97/103/33 33/40/33
f 71/69/34 72/74/34 8/9/34
f 125/112/33 124/106/33 60/43/33
f 99/116/33 98/110/33 34/47/33
f 72/74/34 73/78/34 9/13/34
f 126/118/33 125/112/33 61/49/33
f 100/122/33 99/116/33 35/53/33
f 73/78/34 74/82/34 10/17/34
