# Blender v2.81 (sub 16) OBJ File: ''
# www.blender.org
v 0.084144 0.067811 -0.271163
v -0.031463 -0.087356 -0.220746
v -0.031463 0.067811 -0.271163
v 0.084144 -0.183255 -0.088753
v -0.031463 -0.183255 -0.088753
v 0.084144 -0.183255 0.074399
v -0.031463 -0.183255 0.074399
v -0.031462 -0.087356 0.206392
v 0.084144 0.067811 0.256809
v -0.031462 0.067811 0.256809
v -0.031462 0.222977 0.206392
v 0.084144 0.318876 0.074399
v -0.031463 0.318876 0.074399
v -0.031463 0.318876 -0.088753
v 0.084144 0.318876 -0.088753
v -0.031463 0.222977 -0.220746
v 0.084144 0.222977 -0.220746
v -0.102462 -0.140106 0.060379
v -0.102462 0.275727 0.060379
v -0.102462 0.162650 -0.037992
v -0.102462 0.162650 0.023638
v -0.102462 -0.060689 -0.184042
v -0.102462 0.067811 -0.225794
v -0.102462 -0.140106 -0.074733
v -0.102462 0.196310 -0.184042
v -0.102462 0.275727 -0.074733
v -0.102462 0.196310 0.169687
v -0.102462 0.067811 0.211440
v -0.102462 -0.060689 0.169687
v -0.102462 0.067811 0.092543
v -0.120202 0.009197 0.073498
v -0.102462 0.009197 0.073498
v -0.102462 0.009197 -0.087852
v -0.102462 0.126424 -0.087852
v -0.102462 -0.027029 0.023638
v -0.102462 -0.027029 -0.037992
v -0.102462 0.067811 -0.106897
v -0.102462 0.126424 0.073498
v -0.120202 -0.027029 -0.037992
v -0.120202 0.018174 -0.075496
v -0.120202 0.009197 -0.087852
v -0.120202 0.162650 -0.037992
v -0.120202 0.067811 0.092543
v -0.120202 0.067811 -0.106897
v -0.120202 0.126424 -0.087852
v -0.120202 0.162650 0.023638
v -0.120202 0.126424 0.073498
v -0.120202 -0.027029 0.023638
v -0.120202 0.117447 0.061142
v -0.111581 0.067811 0.077270
v -0.120202 0.067811 0.077270
v -0.120202 0.148124 -0.033273
v -0.120202 -0.012503 -0.033273
v -0.120202 0.117447 -0.075496
v -0.120202 -0.012503 0.018918
v -0.120202 0.067811 -0.091624
v -0.120202 0.148124 0.018918
v -0.120202 0.018174 0.061142
v -0.111581 0.117447 -0.075496
v -0.111581 0.018174 -0.075496
v -0.111581 -0.012503 0.018918
v -0.111581 -0.012503 -0.033273
v -0.111581 0.117447 0.061142
v -0.111581 0.018174 0.061142
v -0.111581 0.067811 -0.091624
v -0.111581 0.148124 0.018918
v -0.111581 0.148124 -0.033273
v 0.199751 -0.087356 -0.220746
v 0.199751 0.067811 -0.271163
v 0.084144 -0.087356 -0.220746
v 0.199751 -0.183255 -0.088753
v 0.199751 -0.087356 0.206392
v 0.199751 -0.183255 0.074399
v 0.084144 -0.087356 0.206392
v 0.199751 0.067811 0.256809
v 0.084144 0.222977 0.206392
v 0.199751 0.222977 0.206392
v 0.199751 0.318876 -0.088753
v 0.199751 0.318876 0.074399
v 0.199751 0.222977 -0.220746
v 0.270750 -0.060689 0.169687
v 0.270750 0.275727 0.060379
v 0.270750 0.162650 -0.037992
v 0.270750 0.275727 -0.074733
v 0.270750 0.067811 -0.225794
v 0.270750 -0.140106 0.060379
v 0.270750 -0.060689 -0.184042
v 0.270750 0.196310 -0.184042
v 0.270750 0.196310 0.169687
v 0.288490 0.009197 0.073498
v 0.270750 0.067811 0.092543
v 0.270750 0.009197 0.073498
v 0.270750 0.067811 0.211440
v 0.270750 0.009197 -0.087852
v 0.270750 -0.140106 -0.074733
v 0.270750 0.126424 -0.087852
v 0.270750 -0.027029 0.023638
v 0.270750 0.067811 -0.106897
v 0.270750 0.126424 0.073498
v 0.288490 0.018174 -0.075496
v 0.288490 -0.027029 -0.037992
v 0.288490 0.009197 -0.087852
v 0.270750 -0.027029 -0.037992
v 0.288490 0.126424 -0.087852
v 0.288490 0.126424 0.073498
v 0.270750 0.162650 0.023638
v 0.288490 0.067811 -0.106897
v 0.288490 0.162650 -0.037992
v 0.279869 0.067811 0.077270
v 0.288490 0.117447 0.061142
v 0.288490 0.067811 0.077270
v 0.288490 0.148124 -0.033273
v 0.288490 0.067811 0.092543
v 0.288490 -0.012503 0.018918
v 0.288490 -0.027029 0.023638
v 0.288490 0.117447 -0.075496
v 0.288490 0.162650 0.023638
v 0.288490 0.067811 -0.091624
v 0.288490 0.148124 0.018918
v 0.279869 -0.012503 -0.033273
v 0.279869 0.018174 -0.075496
v 0.279869 0.148124 0.018918
v 0.288490 -0.012503 -0.033273
v 0.279869 0.117447 -0.075496
v 0.279869 0.117447 0.061142
v 0.279869 -0.012503 0.018918
v 0.288490 0.018174 0.061142
v 0.279869 0.067811 -0.091624
v 0.279869 0.148124 -0.033273
v 0.279869 0.018174 0.061142
vt 0.822714 0.540567
vt 0.810099 0.553183
vt 0.810099 0.540567
vt 0.810099 0.540567
vt 0.822714 0.553183
vt 0.810099 0.553183
vt 0.810099 0.540567
vt 0.822714 0.553183
vt 0.810099 0.553183
vt 0.822714 0.540567
vt 0.810099 0.553183
vt 0.810099 0.540567
vt 0.810099 0.540567
vt 0.822714 0.553183
vt 0.810099 0.553183
vt 0.822714 0.540567
vt 0.810099 0.553183
vt 0.810099 0.540567
vt 0.810099 0.540567
vt 0.822714 0.553183
vt 0.810099 0.553183
vt 0.822714 0.540567
vt 0.810099 0.553183
vt 0.810099 0.540567
vt 0.822714 0.540567
vt 0.810099 0.553183
vt 0.810099 0.540567
vt 0.822714 0.540567
vt 0.810099 0.553183
vt 0.810099 0.540567
vt 0.822714 0.540567
vt 0.810099 0.553183
vt 0.810099 0.540567
vt 0.822714 0.553183
vt 0.810099 0.553183
vt 0.822714 0.553183
vt 0.810099 0.553183
vt 0.822714 0.553183
vt 0.810099 0.553183
vt 0.822714 0.540567
vt 0.810099 0.553183
vt 0.822714 0.540567
vt 0.810099 0.553183
vt 0.822714 0.553183
vt 0.810099 0.553183
vt 0.822714 0.553183
vt 0.810099 0.553183
vt 0.822714 0.540567
vt 0.810099 0.553183
vt 0.822714 0.540567
vt 0.810099 0.553183
vt 0.822714 0.540567
vt 0.810099 0.553183
vt 0.822714 0.540567
vt 0.810099 0.553183
vt 0.810099 0.540567
vt 0.810099 0.540567
vt 0.822714 0.553183
vt 0.810099 0.553183
vt 0.822714 0.540567
vt 0.810099 0.553183
vt 0.810099 0.540567
vt 0.810099 0.540567
vt 0.822714 0.553183
vt 0.810099 0.553183
vt 0.822714 0.540567
vt 0.810099 0.553183
vt 0.810099 0.540567
vt 0.810099 0.540567
vt 0.822714 0.553183
vt 0.810099 0.553183
vt 0.810099 0.540567
vt 0.822714 0.553183
vt 0.810099 0.553183
vt 0.822714 0.540567
vt 0.810099 0.553183
vt 0.810099 0.540567
vt 0.822714 0.540567
vt 0.810099 0.553183
vt 0.810099 0.540567
vt 0.822714 0.540567
vt 0.810099 0.553183
vt 0.810099 0.540567
vt 0.822714 0.540567
vt 0.810099 0.553183
vt 0.810099 0.540567
vt 0.822714 0.540567
vt 0.810099 0.553183
vt 0.810099 0.540567
vt 0.822714 0.540567
vt 0.810099 0.553183
vt 0.810099 0.540567
vt 0.822714 0.540567
vt 0.810099 0.553183
vt 0.810099 0.540567
vt 0.822714 0.540567
vt 0.810099 0.553183
vt 0.810099 0.540567
vt 0.810099 0.540567
vt 0.822714 0.553183
vt 0.810099 0.553183
vt 0.810099 0.540567
vt 0.822714 0.553183
vt 0.810099 0.553183
vt 0.810099 0.540567
vt 0.822714 0.553183
vt 0.810099 0.553183
vt 0.822714 0.540567
vt 0.810099 0.553183
vt 0.810099 0.540567
vt 0.810099 0.540567
vt 0.822714 0.553183
vt 0.810099 0.553183
vt 0.822714 0.540567
vt 0.810099 0.553183
vt 0.810099 0.540567
vt 0.822714 0.540567
vt 0.810099 0.553183
vt 0.810099 0.540567
vt 0.822714 0.540567
vt 0.810099 0.553183
vt 0.810099 0.540567
vt 0.822714 0.540567
vt 0.810099 0.553183
vt 0.810099 0.540567
vt 0.822714 0.540567
vt 0.810099 0.553183
vt 0.810099 0.540567
vt 0.822714 0.540567
vt 0.810099 0.553183
vt 0.810099 0.540567
vt 0.822714 0.540567
vt 0.810099 0.553183
vt 0.810099 0.540567
vt 0.822714 0.540567
vt 0.810099 0.553183
vt 0.810099 0.540567
vt 0.822714 0.540567
vt 0.810099 0.553183
vt 0.810099 0.540567
vt 0.810099 0.540567
vt 0.822714 0.553183
vt 0.810099 0.553183
vt 0.812699 0.551978
vt 0.820114 0.551978
vt 0.822405 0.544926
vt 0.822714 0.540567
vt 0.810099 0.553183
vt 0.810099 0.540567
vt 0.822714 0.540567
vt 0.810099 0.553183
vt 0.810099 0.540567
vt 0.822714 0.540567
vt 0.810099 0.553183
vt 0.810099 0.540567
vt 0.810099 0.540567
vt 0.822714 0.553183
vt 0.810099 0.553183
vt 0.822714 0.540567
vt 0.810099 0.553183
vt 0.810099 0.540567
vt 0.822714 0.540567
vt 0.810099 0.553183
vt 0.810099 0.540567
vt 0.810099 0.540567
vt 0.822714 0.553183
vt 0.810099 0.553183
vt 0.822714 0.540567
vt 0.810099 0.553183
vt 0.810099 0.540567
vt 0.822714 0.540567
vt 0.810099 0.553183
vt 0.810099 0.540567
vt 0.822714 0.540567
vt 0.810099 0.553183
vt 0.810099 0.540567
vt 0.810099 0.540567
vt 0.810099 0.553183
vt 0.810099 0.540567
vt 0.810099 0.553183
vt 0.822714 0.540567
vt 0.810099 0.553183
vt 0.810099 0.540567
vt 0.810099 0.540567
vt 0.810099 0.553183
vt 0.810099 0.540567
vt 0.822714 0.553183
vt 0.810099 0.553183
vt 0.810099 0.540567
vt 0.810099 0.553183
vt 0.822714 0.540567
vt 0.810099 0.553183
vt 0.810099 0.540567
vt 0.822714 0.540567
vt 0.810099 0.553183
vt 0.810099 0.540567
vt 0.822714 0.540567
vt 0.810099 0.553183
vt 0.810099 0.540567
vt 0.822714 0.553183
vt 0.810099 0.553183
vt 0.810099 0.540567
vt 0.822714 0.553183
vt 0.810099 0.553183
vt 0.822714 0.540567
vt 0.810099 0.553183
vt 0.822714 0.553183
vt 0.810099 0.553183
vt 0.822714 0.540567
vt 0.810099 0.553183
vt 0.822714 0.540567
vt 0.810099 0.553183
vt 0.822714 0.553183
vt 0.810099 0.553183
vt 0.822714 0.540567
vt 0.810099 0.553183
vt 0.822714 0.540567
vt 0.810099 0.553183
vt 0.822714 0.553183
vt 0.810099 0.553183
vt 0.822714 0.540567
vt 0.810099 0.553183
vt 0.822714 0.540567
vt 0.810099 0.553183
vt 0.810099 0.540567
vt 0.810099 0.540567
vt 0.822714 0.553183
vt 0.810099 0.553183
vt 0.822714 0.540567
vt 0.810099 0.553183
vt 0.810099 0.540567
vt 0.810099 0.540567
vt 0.822714 0.553183
vt 0.810099 0.553183
vt 0.822714 0.540567
vt 0.810099 0.553183
vt 0.810099 0.540567
vt 0.810099 0.540567
vt 0.822714 0.553183
vt 0.810099 0.553183
vt 0.810099 0.540567
vt 0.822714 0.553183
vt 0.810099 0.553183
vt 0.822714 0.540567
vt 0.810099 0.553183
vt 0.810099 0.540567
vt 0.822714 0.540567
vt 0.810099 0.553183
vt 0.810099 0.540567
vt 0.822714 0.540567
vt 0.810099 0.553183
vt 0.810099 0.540567
vt 0.822714 0.540567
vt 0.810099 0.553183
vt 0.810099 0.540567
vt 0.822714 0.540567
vt 0.810099 0.553183
vt 0.810099 0.540567
vt 0.810099 0.540567
vt 0.822714 0.553183
vt 0.810099 0.553183
vt 0.810099 0.540567
vt 0.822714 0.553183
vt 0.810099 0.553183
vt 0.822714 0.540567
vt 0.810099 0.553183
vt 0.810099 0.540567
vt 0.822714 0.540567
vt 0.810099 0.553183
vt 0.810099 0.540567
vt 0.822714 0.540567
vt 0.810099 0.553183
vt 0.810099 0.540567
vt 0.810099 0.540567
vt 0.822714 0.553183
vt 0.810099 0.553183
vt 0.822714 0.540567
vt 0.810099 0.553183
vt 0.810099 0.540567
vt 0.810099 0.540567
vt 0.822714 0.553183
vt 0.810099 0.553183
vt 0.822714 0.540567
vt 0.810099 0.553183
vt 0.810099 0.540567
vt 0.822714 0.540567
vt 0.810099 0.553183
vt 0.810099 0.540567
vt 0.822714 0.540567
vt 0.810099 0.553183
vt 0.810099 0.540567
vt 0.810099 0.540567
vt 0.822714 0.553183
vt 0.810099 0.553183
vt 0.822714 0.540567
vt 0.810099 0.553183
vt 0.810099 0.540567
vt 0.822714 0.540567
vt 0.810099 0.553183
vt 0.810099 0.540567
vt 0.822714 0.540567
vt 0.810099 0.553183
vt 0.810099 0.540567
vt 0.822714 0.540567
vt 0.810099 0.553183
vt 0.810099 0.540567
vt 0.822714 0.540567
vt 0.810099 0.553183
vt 0.810099 0.540567
vt 0.810099 0.540567
vt 0.822714 0.553183
vt 0.810099 0.553183
vt 0.810407 0.548824
vt 0.812699 0.551978
vt 0.822405 0.544926
vt 0.822714 0.540567
vt 0.810099 0.553183
vt 0.810099 0.540567
vt 0.822714 0.540567
vt 0.810099 0.553183
vt 0.810099 0.540567
vt 0.822714 0.540567
vt 0.810099 0.553183
vt 0.810099 0.540567
vt 0.822714 0.540567
vt 0.810099 0.553183
vt 0.810099 0.540567
vt 0.822714 0.540567
vt 0.810099 0.553183
vt 0.810099 0.540567
vt 0.822714 0.540567
vt 0.810099 0.553183
vt 0.810099 0.540567
vt 0.810099 0.540567
vt 0.822714 0.553183
vt 0.810099 0.553183
vt 0.822714 0.540567
vt 0.810099 0.553183
vt 0.810099 0.540567
vt 0.822714 0.540567
vt 0.810099 0.553183
vt 0.810099 0.540567
vt 0.822714 0.553183
vt 0.822714 0.540567
vt 0.822714 0.540567
vt 0.822714 0.553183
vt 0.822714 0.540567
vt 0.822714 0.540567
vt 0.822714 0.553183
vt 0.822714 0.553183
vt 0.822714 0.553183
vt 0.822714 0.553183
vt 0.822714 0.540567
vt 0.822714 0.540567
vt 0.822714 0.540567
vt 0.822714 0.553183
vt 0.822714 0.553183
vt 0.822714 0.540567
vt 0.822714 0.540567
vt 0.822714 0.553183
vt 0.822714 0.553183
vt 0.822714 0.553183
vt 0.822714 0.553183
vt 0.822714 0.540567
vt 0.822714 0.553183
vt 0.822714 0.540567
vt 0.822714 0.553183
vt 0.822714 0.540567
vt 0.822714 0.540567
vt 0.822714 0.553183
vt 0.822714 0.553183
vt 0.822714 0.553183
vt 0.822714 0.553183
vt 0.822714 0.553183
vt 0.822714 0.553183
vt 0.822714 0.553183
vt 0.822714 0.553183
vt 0.822714 0.540567
vt 0.822714 0.540567
vt 0.822714 0.540567
vt 0.822714 0.553183
vt 0.822714 0.540567
vt 0.822714 0.553183
vt 0.822714 0.553183
vt 0.822714 0.553183
vt 0.822714 0.553183
vt 0.822714 0.553183
vt 0.822714 0.553183
vt 0.822714 0.553183
vt 0.822714 0.553183
vt 0.822714 0.553183
vt 0.822714 0.540567
vt 0.816406 0.553183
vt 0.822405 0.548824
vt 0.820114 0.541772
vt 0.810407 0.544926
vt 0.816406 0.540567
vt 0.812699 0.541772
vt 0.810407 0.548824
vt 0.822714 0.553183
vt 0.822714 0.553183
vt 0.822714 0.553183
vt 0.822714 0.540567
vt 0.822714 0.553183
vt 0.822714 0.553183
vt 0.822714 0.540567
vt 0.822714 0.553183
vt 0.822714 0.553183
vt 0.822714 0.540567
vt 0.822714 0.540567
vt 0.822714 0.540567
vt 0.822714 0.540567
vt 0.822714 0.540567
vt 0.822714 0.540567
vt 0.822714 0.540567
vt 0.822714 0.553183
vt 0.822714 0.540567
vt 0.822714 0.553183
vt 0.822714 0.553183
vt 0.822714 0.540567
vt 0.822714 0.553183
vt 0.822714 0.553183
vt 0.822714 0.540567
vt 0.822714 0.553183
vt 0.822714 0.553183
vt 0.822714 0.540567
vt 0.822714 0.553183
vt 0.822714 0.540567
vt 0.822714 0.553183
vt 0.822714 0.540567
vt 0.822714 0.540567
vt 0.822714 0.553183
vt 0.822714 0.553183
vt 0.822714 0.553183
vt 0.822714 0.553183
vt 0.822714 0.553183
vt 0.822714 0.540567
vt 0.822714 0.540567
vt 0.822714 0.553183
vt 0.822714 0.553183
vt 0.822714 0.553183
vt 0.822714 0.540567
vt 0.822714 0.553183
vt 0.822714 0.540567
vt 0.822714 0.553183
vt 0.822714 0.553183
vt 0.822714 0.553183
vt 0.822714 0.540567
vt 0.822714 0.553183
vt 0.822714 0.553183
vt 0.822714 0.553183
vt 0.822714 0.553183
vt 0.822714 0.553183
vt 0.822714 0.540567
vt 0.816406 0.553183
vt 0.820114 0.551978
vt 0.822405 0.548824
vt 0.820114 0.541772
vt 0.816406 0.540567
vt 0.812699 0.541772
vt 0.810407 0.544926
vt 0.822714 0.553183
vt 0.822714 0.553183
vt 0.822714 0.553183
vt 0.822714 0.553183
vt 0.822714 0.553183
vt 0.822714 0.553183
vt 0.822714 0.540567
vt 0.822714 0.553183
vt 0.822714 0.553183
vn 0.0000 -0.3090 -0.9511
vn 0.0000 -0.8090 -0.5878
vn 0.0000 -1.0000 0.0000
vn 0.0000 -0.8090 0.5878
vn 0.0000 -0.3090 0.9511
vn 0.0000 0.3090 0.9511
vn 0.0000 0.8090 0.5878
vn 0.0000 1.0000 0.0000
vn 0.0000 0.8090 -0.5878
vn 0.0000 0.3090 -0.9511
vn -0.5193 -0.6914 0.5023
vn -0.5194 -0.6914 0.5023
vn -1.0000 0.0000 0.0000
vn -0.5193 -0.2641 -0.8127
vn -0.5194 -0.8546 0.0000
vn -0.5193 -0.6914 -0.5023
vn -0.5193 0.2641 -0.8127
vn -0.5193 0.6914 -0.5023
vn -0.5194 0.6914 -0.5023
vn -0.5194 0.8546 0.0000
vn -0.5193 0.6914 0.5023
vn -0.5193 0.2641 0.8127
vn -0.5193 -0.2641 0.8127
vn 0.5194 -0.6914 0.5023
vn 0.5193 -0.6914 0.5023
vn 1.0000 -0.0000 0.0000
vn 0.5193 -0.2641 -0.8127
vn 0.5194 -0.8546 0.0000
vn 0.5193 -0.6914 -0.5023
vn 0.5193 0.2641 -0.8127
vn 0.5193 0.6914 -0.5023
vn 0.5194 0.8546 0.0000
vn 0.5193 0.6914 0.5023
vn 0.5194 0.6914 0.5023
vn 0.5193 0.2641 0.8127
vn 0.5194 0.2641 0.8127
vn 0.5194 -0.2641 0.8127
vn 0.5193 -0.2641 0.8127
vn -0.5194 -0.6914 -0.5023
vn -0.5194 0.6914 0.5023
vn 0.5194 -0.6914 -0.5023
vn 0.5194 0.6914 -0.5023
s 1
f 1/1/1 2/2/1 3/3/1
f 2/4/2 4/5/2 5/6/2
f 5/7/3 6/8/3 7/9/3
f 6/10/4 8/11/4 7/12/4
f 8/13/5 9/14/5 10/15/5
f 9/16/6 11/17/6 10/18/6
f 11/19/7 12/20/7 13/21/7
f 12/22/8 14/23/8 13/24/8
f 15/25/9 16/26/9 14/27/9
f 17/28/10 3/29/10 16/30/10
f 8/31/11 18/32/11 7/12/12
f 19/33/13 20/34/13 21/35/13
f 3/3/14 22/36/14 23/37/14
f 5/7/15 18/38/15 24/39/15
f 5/40/16 22/41/16 2/4/16
f 3/42/17 25/43/17 16/30/17
f 14/27/18 25/44/18 26/45/19
f 13/24/20 26/46/20 19/47/20
f 13/48/21 27/49/21 11/19/21
f 11/50/22 28/51/22 10/18/22
f 10/52/23 29/53/23 8/13/23
f 30/54/5 31/55/5 32/56/5
f 29/57/13 30/58/13 32/59/13
f 24/60/13 33/61/13 22/62/13
f 26/63/13 34/64/13 20/65/13
f 27/66/13 30/67/13 28/68/13
f 24/69/13 35/70/13 36/71/13
f 25/72/13 37/73/13 34/74/13
f 19/75/13 38/76/13 27/77/13
f 29/78/13 35/79/13 18/80/13
f 22/81/13 37/82/13 23/83/13
f 39/84/13 40/85/13 41/86/13
f 36/87/2 41/88/2 33/89/2
f 34/90/9 42/91/9 20/92/9
f 38/93/6 43/94/6 30/95/6
f 35/96/3 39/97/3 36/98/3
f 34/99/10 44/100/10 45/101/10
f 38/102/7 46/103/7 47/104/7
f 35/105/4 31/106/4 48/107/4
f 33/108/1 44/109/1 37/110/1
f 21/111/8 42/112/8 46/113/8
f 49/114/1 50/115/1 51/116/1
f 45/117/13 52/118/13 42/119/13
f 47/120/13 51/121/13 43/122/13
f 48/123/13 53/124/13 39/125/13
f 44/126/13 54/127/13 45/128/13
f 46/129/13 49/130/13 47/131/13
f 31/132/13 55/133/13 48/134/13
f 41/135/13 56/136/13 44/137/13
f 42/138/13 57/139/13 46/140/13
f 31/141/13 51/142/13 58/143/13
f 59/144/13 60/145/13 61/146/13
f 55/147/8 62/148/8 53/149/8
f 56/150/5 59/151/5 54/152/5
f 57/153/2 63/154/2 49/155/2
f 55/156/9 64/157/9 61/158/9
f 40/159/6 65/160/6 56/161/6
f 52/162/3 66/163/3 57/164/3
f 58/165/10 50/166/10 64/167/10
f 53/168/7 60/169/7 40/170/7
f 54/171/4 67/172/4 52/173/4
f 68/174/1 1/175/1 69/176/1
f 68/177/2 4/5/2 70/178/2
f 71/179/3 6/8/3 4/180/3
f 72/181/4 6/182/4 73/183/4
f 72/184/5 9/14/5 74/185/5
f 75/186/6 76/187/6 9/188/6
f 77/189/7 12/20/7 76/190/7
f 78/191/8 12/192/8 79/193/8
f 80/194/9 15/195/9 78/196/9
f 69/197/10 17/198/10 80/199/10
f 73/183/24 81/200/25 72/201/25
f 82/202/26 83/203/26 84/204/26
f 85/205/27 68/206/27 69/176/27
f 71/179/28 86/207/28 73/208/28
f 87/209/29 71/210/29 68/177/29
f 88/211/30 69/212/30 80/199/30
f 78/196/31 88/213/31 80/214/31
f 82/215/32 78/216/32 79/193/32
f 89/217/33 79/218/34 77/189/33
f 75/186/35 89/219/36 77/220/36
f 81/221/37 75/222/38 72/184/37
f 90/223/5 91/224/5 92/225/5
f 81/226/26 91/227/26 93/228/26
f 94/229/26 95/230/26 87/231/26
f 84/232/26 96/233/26 88/234/26
f 91/235/26 89/236/26 93/237/26
f 95/238/26 97/239/26 86/240/26
f 88/241/26 98/242/26 85/243/26
f 99/244/26 82/245/26 89/246/26
f 97/247/26 81/248/26 86/249/26
f 98/250/26 87/251/26 85/252/26
f 100/253/26 101/254/26 102/255/26
f 102/256/2 103/257/2 94/258/2
f 83/259/9 104/260/9 96/261/9
f 91/262/6 105/263/6 99/264/6
f 101/265/3 97/266/3 103/267/3
f 104/268/10 98/269/10 96/270/10
f 105/271/7 106/272/7 99/273/7
f 97/274/4 90/275/4 92/276/4
f 107/277/1 94/278/1 98/279/1
f 106/280/8 108/281/8 83/282/8
f 109/283/1 110/284/1 111/285/1
f 112/286/26 104/287/26 108/288/26
f 111/289/26 105/290/26 113/291/26
f 101/292/26 114/293/26 115/294/26
f 116/295/26 107/296/26 104/297/26
f 110/298/26 117/299/26 105/300/26
f 114/301/26 90/302/26 115/303/26
f 118/304/26 102/305/26 107/306/26
f 119/307/26 108/308/26 117/309/26
f 90/310/26 111/311/26 113/312/26
f 120/313/26 121/314/26 122/315/26
f 120/316/8 114/317/8 123/318/8
f 124/319/5 118/320/5 116/321/5
f 125/322/2 119/323/2 110/324/2
f 126/325/9 127/326/9 114/327/9
f 128/328/6 100/329/6 118/330/6
f 122/331/3 112/332/3 119/333/3
f 127/334/10 109/335/10 111/336/10
f 121/337/7 123/338/7 100/339/7
f 129/340/4 116/341/4 112/342/4
f 1/1/1 70/343/1 2/2/1
f 2/4/2 70/344/2 4/5/2
f 5/7/3 4/345/3 6/8/3
f 6/10/4 74/346/4 8/11/4
f 8/13/5 74/347/5 9/14/5
f 9/16/6 76/187/6 11/17/6
f 11/19/7 76/348/7 12/20/7
f 12/22/8 15/349/8 14/23/8
f 15/25/9 17/350/9 16/26/9
f 17/28/10 1/351/10 3/29/10
f 8/31/11 29/352/11 18/32/11
f 19/33/13 26/353/13 20/34/13
f 3/3/14 2/354/14 22/36/14
f 5/7/15 7/355/15 18/38/15
f 5/40/16 24/356/39 22/41/16
f 3/42/17 23/357/17 25/43/17
f 14/27/18 16/358/18 25/44/18
f 13/24/20 14/359/20 26/46/20
f 13/48/21 19/360/40 27/49/21
f 11/50/22 27/361/22 28/51/22
f 10/52/23 28/362/23 29/53/23
f 30/54/5 43/363/5 31/55/5
f 29/57/13 28/364/13 30/58/13
f 24/60/13 36/365/13 33/61/13
f 26/63/13 25/366/13 34/64/13
f 27/66/13 38/367/13 30/67/13
f 24/69/13 18/368/13 35/70/13
f 25/72/13 23/369/13 37/73/13
f 19/75/13 21/370/13 38/76/13
f 29/78/13 32/371/13 35/79/13
f 22/81/13 33/372/13 37/82/13
f 39/84/13 53/373/13 40/85/13
f 36/87/2 39/374/2 41/88/2
f 34/90/9 45/375/9 42/91/9
f 38/93/6 47/376/6 43/94/6
f 35/96/3 48/377/3 39/97/3
f 34/99/10 37/378/10 44/100/10
f 38/102/7 21/379/7 46/103/7
f 35/105/4 32/380/4 31/106/4
f 33/108/1 41/381/1 44/109/1
f 21/111/8 20/382/8 42/112/8
f 49/114/1 63/383/1 50/115/1
f 45/117/13 54/384/13 52/118/13
f 47/120/13 49/385/13 51/121/13
f 48/123/13 55/386/13 53/124/13
f 44/126/13 56/387/13 54/127/13
f 46/129/13 57/388/13 49/130/13
f 31/132/13 58/389/13 55/133/13
f 41/135/13 40/390/13 56/136/13
f 42/138/13 52/391/13 57/139/13
f 31/141/13 43/392/13 51/142/13
f 59/144/13 65/393/13 60/145/13
f 60/145/13 62/394/13 61/146/13
f 61/146/13 64/395/13 66/396/13
f 64/395/13 50/397/13 66/396/13
f 50/397/13 63/398/13 66/396/13
f 66/396/13 67/399/13 61/146/13
f 67/399/13 59/144/13 61/146/13
f 55/147/8 61/400/8 62/148/8
f 56/150/5 65/401/5 59/151/5
f 57/153/2 66/402/2 63/154/2
f 55/156/9 58/403/9 64/157/9
f 40/159/6 60/404/6 65/160/6
f 52/162/3 67/405/3 66/163/3
f 58/165/10 51/406/10 50/166/10
f 53/168/7 62/407/7 60/169/7
f 54/171/4 59/408/4 67/172/4
f 68/174/1 70/343/1 1/175/1
f 68/177/2 71/409/2 4/5/2
f 71/179/3 73/410/3 6/8/3
f 72/181/4 74/346/4 6/182/4
f 72/184/5 75/411/5 9/14/5
f 75/186/6 77/412/6 76/187/6
f 77/189/7 79/413/7 12/20/7
f 78/191/8 15/349/8 12/192/8
f 80/194/9 17/350/9 15/195/9
f 69/197/10 1/351/10 17/198/10
f 73/183/24 86/414/24 81/200/25
f 82/202/26 106/415/26 83/203/26
f 85/205/27 87/416/27 68/206/27
f 71/179/28 95/417/28 86/207/28
f 87/209/29 95/418/41 71/210/29
f 88/211/30 85/419/30 69/212/30
f 78/196/31 84/420/42 88/213/31
f 82/215/32 84/421/32 78/216/32
f 89/217/33 82/422/34 79/218/34
f 75/186/35 93/423/35 89/219/36
f 81/221/37 93/424/38 75/222/38
f 90/223/5 113/425/5 91/224/5
f 81/226/26 92/426/26 91/227/26
f 94/229/26 103/427/26 95/230/26
f 84/232/26 83/428/26 96/233/26
f 91/235/26 99/429/26 89/236/26
f 95/238/26 103/430/26 97/239/26
f 88/241/26 96/431/26 98/242/26
f 99/244/26 106/432/26 82/245/26
f 97/247/26 92/433/26 81/248/26
f 98/250/26 94/434/26 87/251/26
f 100/253/26 123/435/26 101/254/26
f 102/256/2 101/436/2 103/257/2
f 83/259/9 108/437/9 104/260/9
f 91/262/6 113/438/6 105/263/6
f 101/265/3 115/439/3 97/266/3
f 104/268/10 107/440/10 98/269/10
f 105/271/7 117/441/7 106/272/7
f 97/274/4 115/442/4 90/275/4
f 107/277/1 102/443/1 94/278/1
f 106/280/8 117/444/8 108/281/8
f 109/283/1 125/445/1 110/284/1
f 112/286/26 116/446/26 104/287/26
f 111/289/26 110/447/26 105/290/26
f 101/292/26 123/448/26 114/293/26
f 116/295/26 118/449/26 107/296/26
f 110/298/26 119/450/26 117/299/26
f 114/301/26 127/451/26 90/302/26
f 118/304/26 100/452/26 102/305/26
f 119/307/26 112/453/26 108/308/26
f 90/310/26 127/454/26 111/311/26
f 121/314/26 128/455/26 124/456/26
f 124/456/26 129/457/26 121/314/26
f 129/457/26 122/315/26 121/314/26
f 122/315/26 125/458/26 109/459/26
f 109/459/26 130/460/26 122/315/26
f 130/460/26 126/461/26 122/315/26
f 126/461/26 120/313/26 122/315/26
f 120/316/8 126/462/8 114/317/8
f 124/319/5 128/463/5 118/320/5
f 125/322/2 122/464/2 119/323/2
f 126/325/9 130/465/9 127/326/9
f 128/328/6 121/466/6 100/329/6
f 122/331/3 129/467/3 112/332/3
f 127/334/10 130/468/10 109/335/10
f 121/337/7 120/469/7 123/338/7
f 129/340/4 124/470/4 116/341/4
